PathFileType	4	(X/Y/Z)	S01_0018_Gait_markers.trc
DataRate	CameraRate	NumFrames	NumMarkers	Units	OrigDataRate	OrigDataStartFrame	OrigNumFrames
250.000000	250.000000	4	54	mm	250.000000	317	363
Frame#	Time	HEAD_ANT			R_HEAD			L_HEAD			C7			R_BACK			L_BACK			STERNUM			R_ACROMION			R_HUM_PROX			R_HUM_ANT			R_HUM_POST			R_ELBOW_LAT			R_ELBOW_MED			R_FOREARM			R_WIRST_LAT			R_WRITS_MED			R_HAND			L_ACROMION			L_HUM_PROX			L_HUM_ANT			L_HUM_POST			L_ELBOW_LAT			L_ELBOW_MED			L_FOREARM			L_WRIST_LAT			L_WIRST_MED			L_HAND			R_ILIAC			SACRUM			L_ILIAC			R_GTROCH			R_THIGH__1			R_THIGH_2			R_THIGH_3			R_THIGH_4			R_SHANK_1			R_SHANK_2			R_SHANK_3			R_SHANK_4			R_HEEL			R_FOOT_LAT			R_FOOT_MED			L_GTROCH			L_THIGH_1			L_THIGH_2			L_THIGH_3			L_THIGH_4			L_SHANK_1			L_SHANK_2			L_SHANK_3			L_SHANK_4			L_HEEL			L_FOOT_LAT			L_FOOT_MED			
		X1	Y1	Z1	X2	Y2	Z2	X3	Y3	Z3	X4	Y4	Z4	X5	Y5	Z5	X6	Y6	Z6	X7	Y7	Z7	X8	Y8	Z8	X9	Y9	Z9	X10	Y10	Z10	X11	Y11	Z11	X12	Y12	Z12	X13	Y13	Z13	X14	Y14	Z14	X15	Y15	Z15	X16	Y16	Z16	X17	Y17	Z17	X18	Y18	Z18	X19	Y19	Z19	X20	Y20	Z20	X21	Y21	Z21	X22	Y22	Z22	X23	Y23	Z23	X24	Y24	Z24	X25	Y25	Z25	X26	Y26	Z26	X27	Y27	Z27	X28	Y28	Z28	X29	Y29	Z29	X30	Y30	Z30	X31	Y31	Z31	X32	Y32	Z32	X33	Y33	Z33	X34	Y34	Z34	X35	Y35	Z35	X36	Y36	Z36	X37	Y37	Z37	X38	Y38	Z38	X39	Y39	Z39	X40	Y40	Z40	X41	Y41	Z41	X42	Y42	Z42	X43	Y43	Z43	X44	Y44	Z44	X45	Y45	Z45	X46	Y46	Z46	X47	Y47	Z47	X48	Y48	Z48	X49	Y49	Z49	X50	Y50	Z50	X51	Y51	Z51	X52	Y52	Z52	X53	Y53	Z53	X54	Y54	Z54	

318	1.268	1863.2490234375	1702.630615234375	-327.8654785156246	1805.751586914062	1646.793579101562	-251.594818115234	1802.389770507812	1655.9775390625	-398.4071350097653	1668.042724609375	1480.1748046875	-332.5200500488278	1601.8056640625	1278.488403320312	-277.956359863281	1598.50537109375	1290.410888671875	-414.908996582031	1849.992309570312	1320.247924804688	-335.0772705078122	1743.476684570312	1424.364135742188	-160.9531707763669	1688.795288085938	1262.1806640625	-81.69775390624972	1742.872802734375	1172.143676757812	-75.94984436035131	1621.77587890625	1184.893920898438	-77.85322570800754	1659.388793945312	1074.109985351562	-68.90960693359351	1641.8662109375	1073.44873046875	-150.796447753906	1741.0712890625	882.2280883789062	-66.17459106445293	1777.333251953125	814.3085327148438	-104.5816268920897	1705.6142578125	797.2059326171875	-73.04383850097639	1765.657836914062	725.3511352539062	-50.65946960449202	1751.834716796875	1441.649291992188	-501.447357177734	1743.2607421875	1278.09619140625	-601.4711914062498	1811.111328125	1202.430053710938	-600.459045410156	1691.531982421875	1197.576049804688	-633.0648803710935	1760.738891601562	1097.20166015625	-640.7394409179685	1704.673095703125	1082.28564453125	-586.4333496093748	1902.260131835938	952.8357543945314	-598.350402832031	1938.714477539062	904.9400634765626	-539.059875488281	1910.941284179688	868.5696411132814	-601.8433837890623	1999.247436523438	837.2931518554689	-577.0366210937498	1747.199340820312	1029.974731445312	-177.8577880859373	1618.262939453125	1008.645935058594	-345.9201660156248	1734.553955078125	1028.827880859375	-524.674621582031	1721.648315429688	881.13623046875	-162.8827362060545	1857.879028320312	627.5598754882812	-199.8822631835936	1904.0283203125	663.9415893554688	-196.6561126708983	1944.911010742188	571.7740478515625	-236.4556579589843	1884.1669921875	552.7894897460938	-223.0213623046874	1940.52392578125	337.7514343261719	-224.5642700195312	1998.856811523438	332.1120910644532	-241.1448516845702	2015.174560546875	249.5197296142579	-261.2241821289062	1952.278930664062	238.5559387207032	-247.1649017333984	1955.411743164062	34.94826126098641	-336.1726989746094	2117.59716796875	30.64118003845221	-253.5593872070312	2168.266357421875	59.7176818847657	-340.7285461425781	1684.636596679688	924.9417114257814	-527.4042358398435	1689.1845703125	632.2015380859376	-516.2894287109374	1643.879272460938	667.7236328125001	-529.2187499999999	1600.499633789062	574.9680786132814	-502.177032470703	1661.398193359375	557.7832641601564	-494.1603393554686	1484.609252929688	330.9816894531251	-488.2707824707031	1426.314819335938	346.598846435547	-494.5984497070312	1373.754516601562	279.0444335937501	-477.3533325195312	1428.652709960938	248.0381011962892	-466.3526916503906	1230.400512695312	153.8827514648438	-408.2772521972656	1357.76708984375	24.60626029968272	-459.8375854492188	1390.703125	29.5488529205323	-353.9969482421875	
319	1.272	1869.242797851562	1702.8515625	-327.1180419921871	1811.931030273438	1647.107055664062	-250.9347534179684	1808.326171875	1656.348876953125	-397.6106567382809	1674.380004882812	1480.3271484375	-331.613616943359	1601.609985351562	1279.907836914062	-278.9579772949216	1605.853637695312	1290.604125976562	-414.3223876953122	1856.606567382812	1320.545654296875	-334.620422363281	1749.963500976562	1424.079956054688	-160.1265716552731	1695.483154296875	1261.837280273438	-81.09397125244112	1749.477905273438	1171.700073242188	-75.01892089843724	1628.426513671875	1184.240478515625	-77.19464874267551	1666.276489257812	1073.633544921875	-68.66558074951148	1648.306518554688	1073.107299804688	-150.5507507324216	1747.678833007812	881.6958618164062	-65.81483459472636	1783.724609375	813.7108154296875	-104.5270233154295	1711.948120117188	796.7443237304688	-72.97084045410139	1772.074951171875	725.006103515625	-50.46884918212874	1757.889892578125	1441.980712890625	-500.8525695800778	1748.81640625	1278.223754882813	-600.741760253906	1816.567260742188	1202.41064453125	-599.9701538085935	1696.926391601562	1197.776977539063	-632.2192382812498	1765.716552734375	1097.296630859375	-639.9564819335935	1710.122192382812	1082.339721679688	-585.702453613281	1907.115478515625	952.0179443359376	-598.6002197265623	1943.543823242188	903.9517211914064	-539.5624999999998	1915.243041992188	867.6961059570314	-602.2481689453123	2003.657104492188	836.1315917968751	-577.6708374023435	1753.564819335938	1029.879638671875	-177.4361419677732	1624.879272460938	1009.068237304688	-345.8408203124998	1742.037475585938	1028.62060546875	-524.3734130859373	1728.886108398438	882.222412109375	-162.3881835937498	1865.192993164062	628.8427734375	-199.4223327636717	1911.468383789062	665.2977905273438	-197.5673522949217	1951.752563476562	572.7664184570312	-236.1894989013671	1891.788696289062	554.2386474609375	-223.0071868896483	1946.621215820312	338.9147644042969	-223.7388916015624	2004.612060546875	332.4803771972657	-241.4525604248046	2019.607055664062	249.4593658447266	-261.5694580078124	1956.913330078125	239.8876037597657	-246.0106048583984	1956.008422851562	35.56403732299812	-335.7201538085938	2118.62939453125	28.46410751342779	-254.2970428466797	2169.10205078125	56.74408340454109	-341.41650390625	1691.553100585938	924.4740600585939	-527.5352783203123	1697.116333007812	631.7386474609376	-516.2014770507811	1651.617431640625	667.1166992187501	-529.2098999023436	1608.760986328125	574.2449340820314	-502.2559204101561	1669.630126953125	556.8861694335939	-494.4048461914061	1491.083618164062	331.2868652343751	-488.8525695800781	1432.927124023438	347.8680725097657	-495.2135925292968	1379.450805664062	280.8764953613282	-477.8251953124999	1433.898071289062	248.967498779297	-466.9471435546874	1234.894775390625	158.1496124267579	-408.9710998535156	1358.501098632812	25.25949287414561	-459.6723327636719	1391.04833984375	29.65747070312508	-354.1204528808594	
320	1.276	1875.245483398438	1703.29638671875	-326.199554443359	1817.44384765625	1647.513427734375	-251.8118438720699	1814.41162109375	1656.619018554688	-396.6424560546872	1680.805786132812	1480.668701171875	-330.7348022460934	1608.282592773438	1280.048095703125	-278.290588378906	1612.242919921875	1290.565795898438	-413.5177612304685	1862.878295898438	1320.924438476562	-333.731262207031	1756.550048828125	1424.0478515625	-159.4964294433591	1702.0966796875	1261.700805664062	-80.46935272216768	1756.273681640625	1171.583374023438	-74.62957000732396	1635.21728515625	1183.93017578125	-76.77584075927709	1673.19482421875	1073.362426757812	-68.49828338623023	1655.498901367188	1072.801391601562	-150.1190490722654	1755.183227539062	881.5821533203125	-66.08735656738261	1790.216430664062	813.1546630859375	-104.5575561523436	1718.307373046875	796.4475708007812	-72.68827056884749	1778.382690429688	724.4761352539062	-50.51455688476546	1764.293701171875	1442.323364257812	-500.2212219238278	1754.484741210938	1278.42919921875	-599.997619628906	1822.239135742188	1202.366943359375	-599.5050048828123	1702.392333984375	1198.120971679688	-631.430969238281	1770.783325195312	1097.246337890625	-639.181701660156	1715.552001953125	1082.534545898438	-584.6439208984373	1911.66259765625	951.4014892578126	-598.9554443359373	1948.31591796875	903.0413208007814	-540.101623535156	1919.463134765625	867.0184326171876	-602.6799316406248	2007.752197265625	834.9083862304689	-578.7625732421873	1760.362548828125	1030.109741210938	-176.9824371337888	1631.579223632812	1009.521362304688	-345.7646179199216	1749.51904296875	1028.527465820313	-524.128723144531	1736.003540039062	883.6563720703125	-161.8211212158201	1873.016967773438	630.3759765625	-199.7516174316405	1919.237182617188	667.0216674804688	-198.9638366699217	1959.106567382812	574.2416381835938	-236.7678070068358	1899.455200195312	555.7630615234375	-222.8121490478514	1952.583740234375	339.9407958984376	-222.9056396484374	2010.116455078125	332.5927429199219	-241.7632904052734	2023.53369140625	249.3118591308594	-261.8926391601562	1961.1376953125	240.4210357666016	-245.2893371582031	1956.602416992188	36.26313781738288	-335.1862182617188	2119.721435546875	26.17869567871099	-254.8150024414062	2169.898193359375	54.05237197875984	-341.9701843261719	1698.495239257812	924.1276245117189	-527.6193237304685	1705.304931640625	631.1600952148439	-516.0206909179686	1659.74169921875	666.3108520507814	-528.7666015624999	1616.991088867188	573.1130981445314	-502.1200256347655	1678.08056640625	556.3432006835939	-494.5303955078124	1497.713134765625	331.5404357910157	-489.4869995117187	1439.722534179688	348.7886352539064	-495.8988647460937	1385.282836914062	282.1074218750001	-478.2001037597656	1439.343383789062	249.3528747558595	-467.0617980957031	1239.746459960938	162.4727630615235	-409.6443176269531	1359.4228515625	25.86426544189463	-459.3506164550781	1391.364868164062	29.7868900299073	-354.1451110839844	
321	1.28	1881.243774414062	1703.7236328125	-325.4337158203121	1824.1533203125	1647.717163085938	-249.2012786865231	1820.32568359375	1657.097412109375	-395.8550415039059	1687.336791992188	1480.975219726562	-329.7739868164059	1614.675415039062	1280.10107421875	-277.7077331542966	1618.670166015625	1290.564819335938	-412.7814025878903	1869.441040039062	1321.28857421875	-333.1562499999997	1763.004272460938	1424.006469726562	-158.7571105957028	1708.764038085938	1261.598266601562	-80.02468872070284	1763.233642578125	1171.612426757812	-74.86672973632787	1642.079467773438	1184.024536132812	-76.26201629638645	1680.141845703125	1073.1435546875	-68.07855987548804	1662.162719726562	1072.659301757812	-149.8361358642576	1761.684814453125	881.2579345703125	-65.9841308593748	1796.658935546875	812.7525634765625	-104.4958724975584	1724.75341796875	796.2882690429688	-72.33769226074202	1784.6787109375	724.313232421875	-50.43941879272445	1770.39990234375	1442.768920898438	-499.6685791015622	1760.039916992188	1278.783325195313	-599.3400878906248	1827.527465820312	1202.630737304688	-598.9857177734373	1707.773803710938	1198.364379882813	-630.1193237304685	1776.269409179688	1097.555786132813	-638.190734863281	1722.322021484375	1082.723266601563	-582.3372802734373	1916.329956054688	950.7555541992189	-599.2352294921873	1952.779296875	902.1043090820314	-540.5612792968748	1923.548950195312	866.3543090820314	-603.175598144531	2011.777221679688	833.7189941406251	-579.730285644531	1767.374145507812	1030.33349609375	-176.3202056884763	1638.310668945312	1009.904113769531	-345.9183654785154	1756.852905273438	1028.453002929688	-524.141418457031	1743.065673828125	885.00634765625	-161.3855743408201	1880.589965820312	631.9407348632812	-199.3436431884764	1926.991821289062	668.7206420898438	-199.5188140869139	1965.925537109375	575.1845092773438	-237.6383209228514	1907.243408203125	557.187744140625	-222.2664947509764	1958.089599609375	340.5402526855469	-222.2618560791015	2015.307373046875	332.3228759765626	-242.0080566406249	2027.233032226562	248.956527709961	-262.1623229980468	1964.911376953125	240.8755645751954	-244.6905822753906	1957.267333984375	36.7669982910157	-334.9156494140625	2120.655517578125	24.07331848144537	-254.861083984375	2170.646484375	51.23648834228523	-342.6726379394531	1705.694702148438	923.7023925781251	-527.5322265624998	1713.581665039062	630.8283691406251	-516.0840454101561	1667.848266601562	665.7988281250001	-528.6659545898436	1625.401977539062	572.3157958984376	-502.2814025878905	1686.826782226562	555.6803588867189	-494.733673095703	1504.245971679688	332.1681518554689	-489.5792236328124	1446.650146484375	350.1727294921876	-496.3680419921874	1391.548217773438	284.6068725585939	-479.4555664062499	1445.562255859375	250.6406250000001	-468.1479797363281	1244.924438476562	166.8084411621095	-410.1268920898437	1360.267578125	26.5324935913087	-459.4158935546875	1391.7509765625	29.93356132507332	-354.184814453125	
